{"title":"Pakeezah (1972) Hindi DvD 2CD Rip Xvid Esub 6 channels  XMR@Mast","uid":6603416,"size":1469421222,"categoryP":"video","categoryS":"movies","magnet":"?xt=urn:btih:3772334b7f097f4e27b69fcedeedacbfa6191dbf&amp;dn=Pakeezah+%281972%29+Hindi+DvD+2CD+Rip+Xvid+Esub+6+channels++XMR%40Mast&amp;tr=udp%3A%2F%2Ftracker.openbittorrent.com%3A80&amp;tr=udp%3A%2F%2Fopen.demonii.com%3A1337&amp;tr=udp%3A%2F%2Ftracker.coppersurfer.tk%3A6969&amp;tr=udp%3A%2F%2Fexodus.desync.com%3A6969","seeders":1,"leechers":0,"uploader":"amanrulz","files":3,"time":1313310623,"description":"mastitorrents.com\n &lt;a href=&quot;\nhttp://mastitorrents.com/forums/index.php&quot; rel=&quot;nofollow&quot; target=&quot;_NEW&quot;&gt;\nhttp://mastitorrents.com/forums/index.php&lt;/a&gt;\n\nRipper                           : Rahul\nSource                           : DDR\nComplete name                    : Pakeezah (1972) \nFormat                           : AVI\nFormat/Info                      : Audio Video Interleave\nFile size                        : 1.36 GiB\nDuration                         : 2h 26mn\nOverall bit rate                 : 1 335 Kbps\nWriting application              : VirtualDubMod 1.5.10.3 | \n\nVideo\nID                               : 0\nFormat                           : MPEG-4 Visual\nFormat profile                   : Advanced Simple@L5\nFormat settings, BVOP            : 2\nFormat settings, QPel            : Yes\nFormat settings, GMC             : No warppoints\nFormat settings, Matrix          : Default (MPEG)\nCodec ID                         : XVID\nCodec ID/Hint                    : XviD\nDuration                         : 2h 26mn\nBit rate                         : 878 Kbps\nWidth                            : 704 pixels\nHeight                           : 368 pixels\nDisplay aspect ratio             : 1.913\nFrame rate                       : 23.976 fps\nColor space                      : YUV\nChroma subsampling               : 4:2:0\nBit depth                        : 8 bits\nScan type                        : Interlaced\nScan order                       : Bottom Field First\nCompression mode                 : Lossy\nBits/(Pixel*Frame)               : 0.141\nStream size                      : 919 MiB (66%)\nWriting library                  : XviD 1.2.1 (UTC 2008-12-04)\n\nAudio\nID                               : 1\nFormat                           : AC-3\nFormat/Info                      : Audio Coding 3\nMode extension                   : CM (complete main)\nCodec ID                         : 2000\nDuration                         : 2h 26mn\nBit rate mode                    : Constant\nBit rate                         : 448 Kbps\nChannel(s)                       : 6 channels\nChannel positions                : Front: L C R, Side: L R, LFE\nSampling rate                    : 48.0 KHz\nBit depth                        : 16 bits\nCompression mode                 : Lossy\nStream size                      : 469 MiB (34%)\nAlignment                        : Split accross interleaves\nInterleave, duration             : 42 ms (1.00 video frame)\nInterleave, preload duration     : 500 ms","torrent":{"xt":"urn:btih:3772334b7f097f4e27b69fcedeedacbfa6191dbf","amp;dn":"Pakeezah+%281972%29+Hindi+DvD+2CD+Rip+Xvid+Esub+6+channels++XMR%40Mast","amp;tr":["udp%3A%2F%2Ftracker.openbittorrent.com%3A80","udp%3A%2F%2Fopen.demonii.com%3A1337","udp%3A%2F%2Ftracker.coppersurfer.tk%3A6969","udp%3A%2F%2Fexodus.desync.com%3A6969"],"infoHash":"3772334b7f097f4e27b69fcedeedacbfa6191dbf","infoHashBuffer":{"type":"Buffer","data":[55,114,51,75,127,9,127,78,39,182,159,206,222,237,172,191,166,25,29,191]},"announce":[],"urlList":[]}}